<mxfile host="app.diagrams.net" modified="2024-07-02T20:33:39.817Z" agent="Mozilla/5.0 (Macintosh; Intel Mac OS X 10_15_7) AppleWebKit/537.36 (KHTML, like Gecko) Chrome/126.0.0.0 Safari/537.36" etag="WDGcD-ZIxQW2Ikj1HkNX" version="24.6.4" type="device">
  <diagram name="Page-1" id="7U6C6u8nf7o7Tva4L2bj">
    <mxGraphModel dx="2261" dy="940" grid="1" gridSize="10" guides="1" tooltips="1" connect="1" arrows="1" fold="1" page="1" pageScale="1" pageWidth="827" pageHeight="1169" math="0" shadow="0">
      <root>
        <mxCell id="0" />
        <mxCell id="1" parent="0" />
        <mxCell id="xMQf2wadGB1ezih--ALW-31" style="edgeStyle=orthogonalEdgeStyle;rounded=0;orthogonalLoop=1;jettySize=auto;html=1;" edge="1" parent="1" source="Z1tSfRbVNoR0hswspwls-4" target="xMQf2wadGB1ezih--ALW-23">
          <mxGeometry relative="1" as="geometry" />
        </mxCell>
        <mxCell id="xMQf2wadGB1ezih--ALW-32" style="edgeStyle=orthogonalEdgeStyle;rounded=0;orthogonalLoop=1;jettySize=auto;html=1;entryX=0;entryY=0.5;entryDx=0;entryDy=0;" edge="1" parent="1" source="Z1tSfRbVNoR0hswspwls-4" target="xMQf2wadGB1ezih--ALW-24">
          <mxGeometry relative="1" as="geometry" />
        </mxCell>
        <mxCell id="Z1tSfRbVNoR0hswspwls-4" value="clinical histories" style="shape=cylinder3;whiteSpace=wrap;html=1;boundedLbl=1;backgroundOutline=1;size=15;" parent="1" vertex="1">
          <mxGeometry x="-350" y="522" width="140" height="165" as="geometry" />
        </mxCell>
        <mxCell id="xMQf2wadGB1ezih--ALW-10" value="doctor model" style="ellipse;whiteSpace=wrap;html=1;" vertex="1" parent="1">
          <mxGeometry x="-110" y="585" width="110" height="40" as="geometry" />
        </mxCell>
        <mxCell id="xMQf2wadGB1ezih--ALW-30" style="edgeStyle=orthogonalEdgeStyle;rounded=0;orthogonalLoop=1;jettySize=auto;html=1;entryX=0.75;entryY=1;entryDx=0;entryDy=0;" edge="1" parent="1" source="xMQf2wadGB1ezih--ALW-11" target="xMQf2wadGB1ezih--ALW-23">
          <mxGeometry relative="1" as="geometry" />
        </mxCell>
        <mxCell id="xMQf2wadGB1ezih--ALW-11" value="patient model" style="ellipse;whiteSpace=wrap;html=1;" vertex="1" parent="1">
          <mxGeometry x="20" y="585" width="110" height="40" as="geometry" />
        </mxCell>
        <mxCell id="xMQf2wadGB1ezih--ALW-25" style="edgeStyle=orthogonalEdgeStyle;rounded=0;orthogonalLoop=1;jettySize=auto;html=1;entryX=0.5;entryY=0;entryDx=0;entryDy=0;exitX=0.25;exitY=1;exitDx=0;exitDy=0;" edge="1" parent="1" source="xMQf2wadGB1ezih--ALW-23" target="xMQf2wadGB1ezih--ALW-10">
          <mxGeometry relative="1" as="geometry" />
        </mxCell>
        <mxCell id="xMQf2wadGB1ezih--ALW-23" value="doctor&#39;s decisons" style="rounded=0;whiteSpace=wrap;html=1;" vertex="1" parent="1">
          <mxGeometry x="-120" y="520" width="260" height="40" as="geometry" />
        </mxCell>
        <mxCell id="xMQf2wadGB1ezih--ALW-29" style="edgeStyle=orthogonalEdgeStyle;rounded=0;orthogonalLoop=1;jettySize=auto;html=1;exitX=0.75;exitY=0;exitDx=0;exitDy=0;entryX=0.5;entryY=1;entryDx=0;entryDy=0;" edge="1" parent="1" source="xMQf2wadGB1ezih--ALW-24" target="xMQf2wadGB1ezih--ALW-11">
          <mxGeometry relative="1" as="geometry" />
        </mxCell>
        <mxCell id="xMQf2wadGB1ezih--ALW-24" value="vital signs" style="rounded=0;whiteSpace=wrap;html=1;" vertex="1" parent="1">
          <mxGeometry x="-120" y="650" width="260" height="40" as="geometry" />
        </mxCell>
        <mxCell id="xMQf2wadGB1ezih--ALW-26" style="edgeStyle=orthogonalEdgeStyle;rounded=0;orthogonalLoop=1;jettySize=auto;html=1;entryX=0.25;entryY=0;entryDx=0;entryDy=0;" edge="1" parent="1" source="xMQf2wadGB1ezih--ALW-10" target="xMQf2wadGB1ezih--ALW-24">
          <mxGeometry relative="1" as="geometry" />
        </mxCell>
      </root>
    </mxGraphModel>
  </diagram>
</mxfile>
